<svg xmlns="http://www.w3.org/2000/svg" width="1288.164" height="1041.536" preserveAspectRatio="xMidYMid" version="1.0" viewBox="0 0 966.123 781.152">
    <defs>
        <clipPath id="a">
            <path d="M420.68 96h658.918v498.207H420.68Zm0 0"/>
        </clipPath>
        <clipPath id="b">
            <path d="M451.863 182.246h597.067v318.207H451.863Zm0 0"/>
        </clipPath>
        <clipPath id="c">
            <path d="M451.863 248.332h597.067v318.207H451.863Zm0 0"/>
        </clipPath>
        <clipPath id="d">
            <path d="M466.664 300.582h557.344v295.707H466.664Zm0 0"/>
        </clipPath>
        <clipPath id="e">
            <path d="M555 245.32h450v326.246H555Zm0 0"/>
        </clipPath>
    </defs>
    <path class="fill-gray-700 dark:fill-gray-300" d="M816.48 633.491c.081 7.879-1.95 18.176-4.067 26.668-14.785 59.703-80.45 126.703-172.871 120.605-83.762-5.511-151.985-45.703-151.985-102.07 0-56.363 68.055-102.066 151.985-102.066s176.406.5 176.937 56.863m0 0"/>
    <path class="fill-gray-500" d="M639.542 586.089c-45.082 0-147.977 12.472-171.59 12.472-41.71 0-75.547 26.164-75.547 58.453 0 15.532 7.965 29.56 20.719 40.024 0 0 28.012 28.086 78.473 14.613 22.082-5.898 58.003-49.71 121.242-56.672 31.492-3.476 90.5 20.88 194.199 21.461 4.457-9.574 5.375-16.226 5.375-16.226 0-56.422-88.941-74.125-172.871-74.125m0 0"/>
    <path class="fill-gray-700 dark:fill-gray-300" d="M812.413 660.159s60.816-12.332 98.633-62.043c44.082-57.98 38.289-120.023 38.289-120.023 44.664-83.504-13.926-161.801-13.926-161.801-5.816-88.153-60.34-124.672-60.34-124.672C839.675 107.53 761.37 84.929 761.37 84.929c-61.484-71.895-170.559-69.586-170.559-69.586S488.616-22.095 348.327 19.99c-23.2 6.957-100.945 23.188-157.809 57.98C11.3 187.64-2.259 358.656.245 386.46c13.894 155.402 122.969 183.234 192.586 199.465 16.234 44.062 75.992 125.254 183.312 95.109 132.27-23.187 187.965-62.629 220.461-62.629S719.6 653.198 812.413 660.16m0 0"/>
    <path class="fill-gray-700 dark:fill-gray-300" d="M477.893 410.288c64.829-34.934 99.97-31.676 130.993-28.863 9.855.89 19.183 1.586 28.625 1.527 55.246-1.25 99.996-24.52 119.793-47.04 5.07-5.788 4.484-14.558-1.282-19.651-5.734-5.063-14.508-4.536-19.656 1.253-15.262 17.368-52.883 36.547-99.496 37.606-8.356.25-16.734-.586-25.426-1.39-33.273-3.09-74.597-6.876-146.777 32.062-18.516 9.992-43.914 13.695-71.426 16.48-61.18-88.265-24.363-165.144-13.84-183.457 1.031.055 2.035.387 3.09.387 11.14 0 22.336-2.727 32.469-8.461 6.683-3.785 9.05-12.273 5.265-18.953-3.789-6.684-12.28-9.047-18.964-5.262-17.82 10.074-41.27 4.258-52.352-13-4.148-6.484-12.754-8.379-19.215-4.203-6.457 4.149-8.351 12.75-4.203 19.207 6.602 10.324 15.902 18.09 26.398 23.297-14.507 29.45-42.046 106.883 10.36 193.477-36.867 3.62-73.793 8.824-102.7 27.445-18.656 12.027-37.73 29.617-52.292 49.851-17.516-3.003-81.649-18.789-92.84-89.933 6.96-5.399 12.586-12.524 16.066-21.32 2.84-7.153-.668-15.227-7.824-18.063-7.156-2.84-15.234.668-18.074 7.82-2.477 6.262-6.961 10.828-12.64 12.832-5.626 2.004-12.005 1.336-17.907-1.949-6.766-3.758-15.203-1.281-18.934 5.399-3.734 6.71-1.308 15.199 5.403 18.93 7.906 4.398 16.37 6.624 24.78 6.624 1.032 0 2.005-.472 3.036-.531 13.254 67.168 66.36 96.672 103.922 105.605-4.898 10.801-8.215 21.934-9.215 33.18-.668 7.625 4.984 14.418 12.64 15.086l1.255.055c7.129 0 13.226-5.426 13.867-12.692 3.008-33.765 35.226-69.03 63.851-87.539 26.844-17.285 66.137-20.933 104.172-24.468 36.899-3.368 71.762-6.598 99.078-21.348m358.274-41.863c-3.649 6.734-1.14 15.195 5.57 18.843a13.8 13.8 0 0 0 6.68 1.727c4.902 0 9.664-2.59 12.199-7.211.527-.945 51.293-96-43.746-159.883-6.352-4.23-15.012-2.586-19.328 3.79-4.285 6.37-2.59 15.027 3.789 19.316 73.625 49.488 36.45 120.41 34.836 123.418M258.995 143.686c4.344 0 8.605-2.004 11.305-5.789 40.379-56.14 96.293-36.937 98.66-36.043 7.21 2.614 15.148-1.058 17.82-8.242 2.676-7.207-1-15.195-8.215-17.867-26.73-9.91-88.468-13.027-130.875 45.926-4.484 6.207-3.066 14.918 3.172 19.402a13.86 13.86 0 0 0 8.133 2.613m364.008-52.55c61.957-5.04 90.136 39.859 91.418 41.976a13.96 13.96 0 0 0 12.004 6.848c2.394 0 4.843-.614 7.043-1.922 6.629-3.899 8.855-12.414 4.984-19.04-1.504-2.534-37.313-61.737-117.621-55.612-7.66.586-13.367 7.293-12.781 14.972.613 7.656 7.547 13.473 14.953 12.778m254.793 406.691c-6.848-.39-14.395 5.039-15.008 12.719-.055.504-4.484 47.847-53.188 63.855-7.296 2.39-11.277 10.242-8.855 17.563 1.895 5.843 7.379 9.574 13.227 9.574 1.449 0 2.898-.223 4.343-.695 66.055-21.657 72.012-85.286 72.235-87.985.586-7.683-5.094-14.418-12.754-15.031m0 0"/>
    <path class="fill-gray-700 dark:fill-gray-300" d="M188.57 362.577c-2.005 7.434 2.394 15.059 9.831 17.066a13.5 13.5 0 0 0 3.617.473 13.905 13.905 0 0 0 13.426-10.3c5.29-19.79 25.813-32.481 46-28.223 7.547 1.53 14.899-3.23 16.485-10.774 1.59-7.515-3.23-14.89-10.778-16.476-11.86-2.508-23.777-1.336-34.75 2.394-32.469-55.504-26.148-110.226-26.066-110.812 1.004-7.598-4.344-14.586-11.946-15.641-7.574-.918-14.59 4.285-15.648 11.883-.363 2.703-7.797 64.465 29.602 128.43-9.301 8.378-16.375 19.316-19.774 31.98m311.296-68.75c11.332-10.492 29.516-10.297 40.516.418a13.98 13.98 0 0 0 9.718 3.926c3.649 0 7.27-1.422 9.97-4.23 5.347-5.512 5.234-14.337-.278-19.68-6.406-6.207-14.063-10.356-22.195-12.946 8.242-28.277 4.984-40.832-2.672-64.351-1.336-4.094-2.813-8.657-4.371-13.864l-.836-2.78c-10.137-33.626-16.848-55.81 2.421-87.126 4.04-6.539 1.977-15.113-4.566-19.148-6.434-4.008-15.094-2.032-19.16 4.566-25.84 41.973-16.344 73.399-5.344 109.777l.832 2.786a758 758 0 0 0 4.54 14.39c6.878 21.18 8.968 28.278.558 53.887-10.274 1.922-20.106 6.57-28.125 14.027-5.625 5.235-5.93 14.059-.695 19.68 5.261 5.621 14.09 5.902 19.687.668m177.242-83.086c8.102 0 16.29-1.7 23.918-5.316 6.965-3.286 9.942-11.578 6.656-18.54-3.257-6.956-11.668-9.851-18.515-6.652-13.98 6.57-31.219.864-38.543-12.719-3.645-6.792-12.14-9.27-18.852-5.707-6.765 3.622-9.328 12.082-5.68 18.844 5.012 9.352 12.477 16.73 21.165 21.852-14.953 36.324-6.461 74.902.472 95.36 1.95 5.82 7.38 9.464 13.2 9.464a14 14 0 0 0 4.457-.723c7.293-2.449 11.191-10.355 8.714-17.62-4.68-13.86-13.757-48.876-.054-78.66 1.058.054 2.031.417 3.062.417m133.578 262.453c-.527-7.656-7.156-13.695-14.785-13-28.238 2.004-52.297-19.398-54.219-47.402-.554-7.653-7.378-13.36-14.84-12.942-7.66.528-13.453 7.18-12.949 14.836 1.141 16.422 7.407 31.23 16.93 43.282-22.387 26.332-51.71 33.82-68.055 35.738-14.453 1.726-27.097.254-41.714-1.473-13.395-1.531-28.543-3.285-47.286-2.73l-.136.031c-.559-7.96-2.453-19.57-8.496-29.227-4.063-6.488-12.668-8.464-19.184-4.398-6.488 4.063-8.496 12.664-4.402 19.176 3.734 5.984 4.43 15.535 4.43 20.18-14.036 5.039-26.176 12.445-37.15 19.597-19.6 12.746-35.058 22.824-58.308 17.59-21.05-4.812-42.133-5.789-60.011-3.281-2.782-6.989-7.184-15.34-13.977-21.77-5.598-5.289-14.398-5.066-19.687.559-5.262 5.566-5.04 14.39.554 19.68 2.399 2.253 4.29 5.539 5.82 8.82-30.714 12.64-46.113 33.765-46.835 34.797-4.457 6.234-2.98 14.832 3.203 19.316a13.92 13.92 0 0 0 8.129 2.617c4.316 0 8.578-1.976 11.308-5.707.137-.222 15.426-20.683 45.582-28.949 15.594-4.285 37.957-3.926 59.758 1.031 6.102 1.39 11.754 1.864 17.238 1.95 2.59 6.066 3.594 13.273 3.73 15.949.446 7.402 6.575 13.136 13.895 13.136l.754-.027c7.656-.418 13.531-6.902 13.172-14.559-.086-1.39-.64-9.628-3.621-19.093 12.836-4.649 24.004-11.914 34.504-18.735 15.926-10.382 30.992-20.207 50.68-20.847 16.484-.586 30.074 1.004 43.187 2.535 13.2 1.527 26.176 2.531 40.488 1.695 2.536 7.043 2.34 16.45 1.95 19.598-.918 7.597 4.457 14.555 12.086 15.558.585.082 1.171.11 1.753.11 6.88 0 12.868-5.094 13.786-12.106.222-1.726 1.644-14.254-1.645-27.304 19.996-5.375 44.777-17.036 65.3-40.946 12.005 7.348 26.009 11.66 40.907 11.66 1.727 0 3.48-.054 5.207-.164 7.66-.503 13.45-7.097 12.95-14.78m0 0"/>
    <g  transform="translate(-223.849 -22.486)">
        <path class="fill-gray-50 dark:fill-gray-800" d="M844.344 271.281c0-8.98-7.282-16.254-16.262-16.254s-16.258 7.274-16.258 16.254 7.278 16.254 16.258 16.254 16.262-7.273 16.262-16.254m16.707 137.684c-8.989 0-16.27 7.27-16.27 16.254 0 8.976 7.282 16.258 16.27 16.258 8.972 0 16.258-7.282 16.258-16.258 0-8.985-7.286-16.254-16.258-16.254M596.219 450.84c-6.352 6.351-6.352 16.644 0 22.996 6.351 6.348 16.644 6.348 22.996 0 6.351-6.352 6.351-16.645 0-22.996-6.352-6.348-16.645-6.348-22.996 0m77.672-155.856c-8.98 0-16.258 7.274-16.258 16.254 0 8.977 7.277 16.258 16.258 16.258 8.984 0 16.261-7.281 16.261-16.258 0-8.98-7.277-16.254-16.261-16.254m365.695 35.782c-20.766-23.48-47.785-40.215-77.629-48.344-2.039-62.777-53.75-113.227-117.023-113.227-7.344 0-14.61.68-21.739 2.024a160.1 160.1 0 0 0-48.472-49.371c-25.907-16.868-56.008-25.79-87.047-25.79-88.063 0-159.711 71.633-159.711 159.684 0 9.785.883 19.477 2.637 28.992-27.422 9.008-52.133 25.403-71.23 47.551-24.95 28.938-38.692 65.945-38.692 104.2q0 1.65.035 3.296c1.332 65.403 42.922 120.567 100.605 143.235V410.609c-8.531-4.507-14.34-13.468-14.34-23.789 0-15.215 12.625-27.476 27.965-26.894 13.871.535 25.203 11.77 25.836 25.637.492 10.847-5.437 20.355-14.308 25.046v179.957a160 160 0 0 0 33.336 3.5h100.757v-55.28l-64.918-50.731c-9.222 2.832-19.668.601-26.964-6.692-10.758-10.75-10.504-28.347.757-38.785 10.18-9.433 26.149-9.496 36.395-.14 8.02 7.32 10.55 18.238 7.598 27.832l72.289 58.101v65.695h32.468V486.621l-76.875-60.36v-91.23c-8.87-4.695-14.804-14.203-14.308-25.047.633-13.87 11.965-25.105 25.832-25.636 15.344-.582 27.969 11.68 27.969 26.89 0 10.325-5.813 19.282-14.34 23.793v79l51.722 40.61V253.465c-8.527-4.52-14.34-13.477-14.34-23.797 0-15.207 12.622-27.469 27.965-26.887 13.871.528 25.207 11.77 25.832 25.63.496 10.843-5.433 20.35-14.308 25.054v131.62l52.168-40.952v-49.059c-8.531-4.511-14.34-13.472-14.34-23.793 0-15.215 12.621-27.476 27.965-26.894 13.867.535 25.199 11.77 25.836 25.64.496 10.844-5.442 20.352-14.309 25.047v61.281l-77.32 60.707v177.004h153.69l-68.566-53.824v-91.23c-8.86-4.7-14.797-14.203-14.309-25.051.637-13.867 11.973-25.102 25.844-25.633 15.34-.582 27.965 11.68 27.965 26.89 0 10.321-5.813 19.278-14.34 23.794v79l51.715 40.61V367.444c-8.524-4.52-14.34-13.476-14.34-23.797 0-15.207 12.633-27.472 27.973-26.886 13.863.523 25.203 11.765 25.832 25.629.492 10.843-5.434 20.351-14.309 25.054v224.317c30.422-5.254 58.871-19.36 81.172-41.227.762-.746 1.52-1.5 2.273-2.273 29.446-30.024 45.657-69.723 45.657-111.778 0-38.988-14.211-76.53-40.012-105.718m-505.691 39.8c-8.98 0-16.262 7.274-16.262 16.254 0 8.977 7.281 16.258 16.262 16.258 8.98 0 16.261-7.281 16.261-16.258 0-8.98-7.281-16.254-16.261-16.254m216.87-157.156c-8.98 0-16.257 7.285-16.257 16.258 0 8.984 7.277 16.266 16.258 16.266s16.257-7.282 16.257-16.266c0-8.973-7.277-16.258-16.257-16.258m187.15 113.98c-8.977 0-16.259 7.282-16.259 16.258 0 8.985 7.282 16.262 16.258 16.262 8.984 0 16.266-7.277 16.266-16.262 0-8.976-7.282-16.257-16.266-16.257"/>
    </g>
    <g transform="translate(-223.849 -22.486)">
        <path class="fill-gray-50 dark:fill-gray-800" d="M561.266 280.84a109.1 109.1 0 0 1 28.644 3.828c20.387-59.508 76.633-102.293 142.875-102.293 62.848 0 116.715 38.504 139.48 93.273a84.7 84.7 0 0 1 25.727-3.984c46.961 0 85.028 38.191 85.028 85.297 0 .059-.004.11-.004.168 37.234 2.43 66.695 33.476 66.695 71.445 0 39.555-31.965 71.613-71.395 71.613q-1.64-.002-3.258-.082l-.008.082-.55-.101c-.492-.027-.977-.074-1.465-.113H569.66c-2.774.215-5.567.351-8.395.351-60.425 0-109.402-49.129-109.402-109.738 0-60.606 48.977-109.746 109.402-109.746zm0 0"/>
    </g>
    <g transform="translate(-223.849 -22.486)">
        <path class="fill-gray-50 dark:fill-gray-800" d="M561.266 346.926c9.914 0 19.511 1.347 28.644 3.828 20.387-59.508 76.633-102.293 142.875-102.293 62.848 0 116.715 38.504 139.48 93.273a84.7 84.7 0 0 1 25.727-3.984c46.961 0 85.028 38.187 85.028 85.297 0 .058-.004.11-.004.168 37.234 2.43 66.695 33.476 66.695 71.445 0 39.55-31.965 71.613-71.395 71.613q-1.64-.002-3.258-.082l-.008.082-.55-.101c-.492-.027-.977-.078-1.465-.113H569.66c-2.774.214-5.567.351-8.395.351-60.425 0-109.402-49.129-109.402-109.738s48.977-109.746 109.402-109.746zm0 0"/>
    </g>
    <g  transform="translate(-223.849 -22.486)">
        <path class="fill-gray-50 dark:fill-gray-800" d="M568.387 392.203c9.25 0 18.203 1.254 26.722 3.559 19.016-55.301 71.48-95.059 133.27-95.059 58.625 0 108.871 35.781 130.11 86.676a79.3 79.3 0 0 1 24-3.7c43.804 0 79.308 35.485 79.308 79.262v.157c34.73 2.257 62.21 31.109 62.21 66.39 0 36.758-29.816 66.551-66.593 66.551-1.023 0-2.035-.031-3.043-.078l-.004.078-.516-.098c-.457-.023-.91-.07-1.363-.101h-376.27c-2.585.195-5.195.324-7.831.324-56.36 0-102.047-45.656-102.047-101.976s45.683-101.985 102.047-101.985m0 0"/>
    </g>
    <g transform="translate(-223.849 -22.486)">
        <path class="fill-gray-700 dark:fill-gray-300" d="m985.71 365.324-47.058 188.117H576.645l48.117-192.504a9.09 9.09 0 0 1 8.816-6.867h343.317a8.97 8.97 0 0 1 7.152 3.504 8.97 8.97 0 0 1 1.664 7.75m-411.616-92.816c0-4.992 4.07-9.063 9.062-9.063h61.328c3.434 0 6.551 1.91 8.075 4.993l13.136 26.265c1.52 3.043 4.672 4.992 8.106 4.992h253.804c4.993 0 9.067 4.07 9.067 9.063v27.187H633.578c-12.5 0-23.367 8.461-26.379 20.602l-33.105 132.36zm402.8 63.437h-22.093v-27.187c0-15.012-12.18-27.188-27.196-27.188H679.398l-10.59-21.242c-4.671-9.238-13.984-15.008-24.324-15.008h-61.328c-15.011 0-27.191 12.176-27.191 27.188v289.996c0 .351.176.707.21 1.058.071.497.145.993.321 1.524.211.781.567 1.488.992 2.16.176.246.211.602.387.813.11.144.285.214.39.32.602.672 1.313 1.203 2.09 1.7.32.21.567.46.922.636a8.8 8.8 0 0 0 3.75.851h380.707a9.02 9.02 0 0 0 8.782-6.87l48.757-194.981c2.055-8.176.247-16.672-4.957-23.328-5.168-6.621-12.996-10.442-21.421-10.442"/>
    </g>
    <path class="fill-gray-700 dark:fill-gray-300" d="M604.05 512.83h18.129v-18.124h-18.13zm36.257 0h18.13v-18.124h-18.13zm36.258 0h18.13v-18.124h-18.13z"/>
</svg>
