<svg xmlns="http://www.w3.org/2000/svg" width="827.196" height="666.378" class="h-24 w-24" preserveAspectRatio="xMidYMid" version="1.0" viewBox="0 0 620.397 499.784">
    <path fill="#00f" d="M524.302,405.313C524.357,410.352,523.052,416.942,521.692,422.372C512.197,460.571,470.03200000000004,503.438,410.685,499.536C356.895,496.012,313.087,470.293,313.087,434.231S356.78999999999996,368.931,410.685,368.931S523.962,369.251,524.302,405.313M524.302,405.313"/>
    <path fill="#add8e6" d="M410.685 374.985c-28.953 0-95.024 7.976-110.188 7.976-26.785 0-48.511 16.743-48.511 37.399 0 9.937 5.113 18.914 13.304 25.61 0 0 17.989 17.968 50.39 9.347 14.18-3.774 37.247-31.805 77.856-36.258 20.223-2.227 58.114 13.355 124.704 13.73 2.863-6.125 3.453-10.382 3.453-10.382 0-36.098-57.114-47.422-111.008-47.422m0 0"/>
    <path fill="#00f" d="M521.693,422.372S560.747,414.481,585.029,382.67600000000004C613.337,345.58200000000005,609.615,305.88700000000006,609.615,305.88700000000006C638.298,252.45700000000005,600.677,202.36400000000006,600.677,202.36400000000006C596.939,145.96100000000007,561.927,122.59800000000006,561.927,122.59800000000006C539.197,68.79800000000006,488.915,54.336000000000055,488.915,54.336000000000055C449.435,8.336000000000055,379.39200000000005,9.816000000000052,379.39200000000005,9.816000000000052S313.76700000000005,-14.13599999999995,223.67700000000005,12.789000000000051C208.78300000000004,17.243000000000052,158.85700000000006,27.62500000000005,122.34500000000006,49.88700000000005C7.259,120.051,-1.452,229.47,0.158,247.258C9.083,346.684,79.122,364.493,123.82900000000001,374.875C134.251,403.067,172.626,455.016,241.54000000000002,435.727C326.478,420.895,362.24300000000005,395.66099999999994,383.11,395.66099999999994C403.978,395.66099999999994,462.095,417.91799999999995,521.693,422.3709999999999M521.693,422.3709999999999"/>
    <path fill="#fff" d="M393.228,146.824C393.228,140.84400000000002,388.38,136.001,382.395,136.001C376.419,136.001,371.57099999999997,140.844,371.57099999999997,146.82500000000002S376.419,157.645,382.395,157.645C388.38,157.645,393.227,152.805,393.227,146.82500000000002M404.351,238.48600000000002C398.367,238.48600000000002,393.519,243.32600000000002,393.519,249.306C393.519,255.28300000000002,398.367,260.13100000000003,404.351,260.13100000000003C410.328,260.13100000000003,415.176,255.28300000000002,415.176,249.30600000000004C415.176,243.32600000000005,410.328,238.48600000000005,404.351,238.48600000000005M228.001,266.36400000000003C223.77100000000002,270.591,223.77100000000002,277.446,228.001,281.67300000000006S239.08700000000002,285.89900000000006,243.31300000000002,281.67300000000006C247.543,277.4460000000001,247.543,270.59100000000007,243.31300000000002,266.36400000000003C239.08700000000002,262.13700000000006,232.23100000000002,262.13700000000006,228.001,266.36400000000003M279.723,162.60200000000003C273.743,162.60200000000003,268.89500000000004,167.44600000000003,268.89500000000004,173.42700000000002C268.89500000000004,179.40300000000002,273.74300000000005,184.25100000000003,279.723,184.25100000000003S290.552,179.40300000000002,290.552,173.42600000000004C290.552,167.44600000000005,285.704,162.60200000000003,279.723,162.60200000000003M523.235,186.42700000000002C509.411,170.794,491.415,159.65300000000002,471.544,154.23900000000003C470.188,112.44600000000003,435.75399999999996,78.86400000000003,393.62199999999996,78.86400000000003C388.727,78.86400000000003,383.89199999999994,79.31400000000004,379.14199999999994,80.20800000000003A106.5,106.5,0,0,0,346.8639999999999,47.34100000000003C329.6139999999999,36.11100000000003,309.5709999999999,30.17300000000003,288.90399999999994,30.17300000000003C230.26299999999995,30.17300000000003,182.55199999999994,77.86000000000003,182.55199999999994,136.47700000000003C182.55199999999994,142.99300000000002,183.14199999999994,149.44600000000003,184.30899999999994,155.78200000000004A106.64,106.64,0,0,0,136.87199999999996,187.43800000000005C120.25899999999996,206.70000000000005,111.10999999999996,231.34100000000004,111.10999999999996,256.80500000000006Q111.10999999999996,257.90600000000006,111.13399999999996,259.0010000000001C112.01999999999995,302.5400000000001,139.71599999999995,339.2660000000001,178.12599999999998,354.3560000000001V239.579C172.44599999999997,236.579,168.57899999999998,230.614,168.57899999999998,223.743C168.57899999999998,213.614,176.98499999999999,205.453,187.2,205.841C196.434,206.196,203.981,213.673,204.403,222.907C204.731,230.126,200.78199999999998,236.45700000000002,194.876,239.579V359.384A106.5,106.5,0,0,0,217.07500000000002,361.716H284.169V324.911L240.939,291.137C234.798,293.024,227.845,291.54,222.981,286.684C215.821,279.524,215.989,267.809,223.489,260.86400000000003C230.266,254.58300000000003,240.899,254.54000000000002,247.723,260.77000000000004C253.06300000000002,265.641,254.751,272.91,252.782,279.29800000000006L300.919,317.97800000000007V361.71600000000007H322.539V290.1840000000001L271.349,250.0010000000001V189.26600000000008C265.442,186.13700000000009,261.489,179.80900000000008,261.82099999999997,172.59100000000007C262.243,163.35600000000005,269.78999999999996,155.87600000000006,279.02399999999994,155.52400000000006C289.24299999999994,155.13700000000006,297.64899999999994,163.29800000000006,297.64899999999994,173.42700000000005C297.64899999999994,180.29700000000005,293.77899999999994,186.25900000000004,288.09899999999993,189.26700000000005V241.86000000000007L322.53899999999993,268.8950000000001V134.9650000000001C316.85999999999996,131.9540000000001,312.9889999999999,125.9930000000001,312.9889999999999,119.12200000000009C312.9889999999999,108.99700000000009,321.3949999999999,100.83700000000009,331.6139999999999,101.22300000000008C340.8479999999999,101.57100000000008,348.39899999999994,109.05500000000008,348.8169999999999,118.28600000000009C349.14499999999987,125.50500000000008,345.1969999999999,131.83300000000008,339.2859999999999,134.9660000000001V222.5910000000001L374.0239999999999,195.3250000000001V162.6650000000001C368.3439999999999,159.66100000000012,364.4739999999999,153.6920000000001,364.4739999999999,146.8250000000001C364.4739999999999,136.6960000000001,372.8799999999999,128.5320000000001,383.0939999999999,128.9190000000001C392.33299999999986,129.2740000000001,399.8799999999999,136.7550000000001,400.3019999999999,145.9890000000001C400.6299999999999,153.20800000000008,396.6769999999999,159.5360000000001,390.7739999999999,162.66500000000008V203.46200000000007L339.2859999999999,243.8760000000001V361.7160000000001H441.63L395.973,325.8800000000001V265.1440000000001C390.071,262.0190000000001,386.118,255.68700000000013,386.44300000000004,248.46800000000013C386.86800000000005,239.23800000000014,394.415,231.75800000000012,403.653,231.40200000000013C413.868,231.01500000000013,422.274,239.17900000000012,422.274,249.30400000000014C422.274,256.17600000000016,418.404,262.14000000000016,412.724,265.1440000000001V317.7380000000001L447.161,344.77300000000014V210.844C441.485,207.837,437.614,201.87199999999999,437.614,195.001C437.614,184.88,446.024,176.711,456.239,177.102C465.47299999999996,177.454,473.024,184.934,473.44199999999995,194.165C473.7699999999999,201.384,469.82199999999995,207.712,463.91099999999994,210.845V360.18C484.17299999999994,356.684,503.11799999999994,347.29,517.9659999999999,332.735Q518.7259999999999,331.992,519.4809999999999,331.219C539.0869999999999,311.235,549.8799999999999,284.802,549.8799999999999,256.805C549.8799999999999,230.852,540.4189999999999,205.856,523.2349999999999,186.42700000000002M186.50099999999992,212.92300000000003C180.52099999999993,212.92300000000003,175.67299999999992,217.76300000000003,175.67299999999992,223.74300000000002C175.67299999999992,229.71900000000002,180.51999999999992,234.56300000000002,186.50099999999992,234.56300000000002S197.32899999999992,229.71900000000002,197.32899999999992,223.74300000000002C197.32899999999992,217.76300000000003,192.4809999999999,212.92300000000003,186.50099999999992,212.92300000000003M330.9149999999999,108.29800000000003C324.9309999999999,108.29800000000003,320.08699999999993,113.14500000000002,320.08699999999993,119.12200000000003C320.08699999999993,125.10200000000003,324.9309999999999,129.95000000000002,330.9149999999999,129.95000000000002C336.8909999999999,129.95000000000002,341.7389999999999,125.10200000000002,341.7389999999999,119.12200000000001C341.7389999999999,113.14500000000001,336.8909999999999,108.29800000000002,330.9149999999999,108.29800000000002M455.5359999999999,184.18C449.5589999999999,184.18,444.7079999999999,189.02800000000002,444.7079999999999,195C444.7079999999999,200.981,449.5589999999999,205.829,455.5359999999999,205.829C461.5159999999999,205.829,466.36399999999986,200.981,466.36399999999986,195.001C466.36399999999986,189.028,461.51599999999985,184.181,455.5359999999999,184.181"/>
</svg>
