<?xml version="1.0" encoding="UTF-8" standalone="no"?>
<svg
   width="1000"
   height="1000"
   version="1.0"
   viewBox="0 0 750 750"
   id="svg8"
   sodipodi:docname="logo.svg"
   inkscape:version="1.3.2 (091e20e, 2023-11-25)"
   xmlns:inkscape="http://www.inkscape.org/namespaces/inkscape"
   xmlns:sodipodi="http://sodipodi.sourceforge.net/DTD/sodipodi-0.dtd"
   xmlns:xlink="http://www.w3.org/1999/xlink"
   xmlns="http://www.w3.org/2000/svg"
   xmlns:svg="http://www.w3.org/2000/svg">
  <sodipodi:namedview
     id="namedview8"
     pagecolor="#ffffff"
     bordercolor="#000000"
     borderopacity="0.25"
     inkscape:showpageshadow="2"
     inkscape:pageopacity="0.0"
     inkscape:pagecheckerboard="0"
     inkscape:deskcolor="#d1d1d1"
     inkscape:zoom="0.982"
     inkscape:cx="500"
     inkscape:cy="499.49084"
     inkscape:window-width="1392"
     inkscape:window-height="1212"
     inkscape:window-x="0"
     inkscape:window-y="25"
     inkscape:window-maximized="0"
     inkscape:current-layer="svg8" />
  <defs
     id="defs1">
    <color-profile
       name="Display-P3"
       xlink:href="file:///System/Library/ColorSync/Profiles/Display%20P3.icc"
       id="color-profile1" />
    <color-profile
       name="ACES-CG-Linear-Academy-Color-Encoding-System-AP1"
       xlink:href="file:///System/Library/ColorSync/Profiles/ACESCG%20Linear.icc"
       id="color-profile2" />
    <clipPath
       id="a">
      <path
         d="M512.742 44.523h438.77v331.668h-438.77zm0 0"
         id="path1" />
    </clipPath>
  </defs>
  <path
     fill="#102e71"
     d="M588.802 406.755c.054 5.056-1.25 11.669-2.61 17.118-9.496 38.335-51.66 81.355-111.008 77.439-53.789-3.537-97.597-29.346-97.597-65.538 0-36.19 43.703-65.532 97.597-65.532 53.895 0 113.278.321 113.618 36.512m0 0"
     style="stroke-width:1.00178"
     id="path2" />
  <path
     fill="#57abda"
     d="M475.184 376.318c-28.953 0-95.023 8.005-110.187 8.005-26.785 0-48.512 16.802-48.512 37.531 0 9.974 5.113 18.981 13.305 25.701 0 0 17.988 18.032 50.39 9.38 14.18-3.786 37.247-31.918 77.856-36.386 20.223-2.234 58.113 13.403 124.703 13.778 2.863-6.145 3.453-10.419 3.453-10.419 0-36.226-57.113-47.59-111.008-47.59m0 0"
     style="stroke-width:1.00178"
     id="path3" />
  <path
     fill="#102e71"
     d="M586.192 423.873s39.055-7.918 63.336-39.836c28.31-37.226 24.586-77.063 24.586-77.063 28.684-53.62-8.937-103.89-8.937-103.89-3.739-56.603-38.75-80.05-38.75-80.05-22.73-53.992-73.012-68.504-73.012-68.504C513.935 8.366 443.891 9.852 443.891 9.852s-65.625-24.039-155.713 2.983c-14.895 4.469-64.82 14.889-101.332 37.229C71.758 120.479 63.048 230.284 64.657 248.138c8.926 99.778 78.965 117.65 123.672 128.07 10.422 28.292 48.797 80.425 117.71 61.068 84.938-14.885 120.704-40.209 141.571-40.209s78.985 22.338 138.582 26.805m0 0"
     style="stroke-width:1.00178"
     id="path4" />
  <path
     fill="#102e71"
     d="M371.38 263.437c41.63-22.43 64.195-20.337 84.117-18.534 6.328.572 12.32 1.019 18.383.984 35.476-.803 64.21-15.747 76.926-30.204 3.253-3.716 2.878-9.346-.825-12.62-3.683-3.25-9.316-2.912-12.625.808-9.797 11.15-33.957 23.466-63.89 24.144-5.364.161-10.746-.376-16.325-.893-21.367-1.984-47.906-4.415-94.253 20.588-11.89 6.417-28.2 8.792-45.868 10.58-39.285-56.673-15.644-106.035-8.886-117.797.66.037 1.304.251 1.984.251 7.152 0 14.34-1.75 20.852-5.432 4.29-2.43 5.808-7.88 3.378-12.173-2.433-4.288-7.886-5.805-12.175-3.374-11.446 6.468-26.504 2.732-33.62-8.347-2.665-4.166-8.189-5.382-12.337-2.7-4.149 2.665-5.364 8.185-2.7 12.333 4.24 6.628 10.211 11.615 16.95 14.959-9.317 18.907-27 68.63 6.652 124.23-23.676 2.32-47.387 5.664-65.945 17.62-11.98 7.718-24.23 19.016-33.582 32.007-11.25-1.928-52.43-12.062-59.618-57.743 4.47-3.47 8.082-8.044 10.317-13.689 1.824-4.595-.43-9.777-5.024-11.6-4.597-1.822-9.78.428-11.605 5.022-1.59 4.022-4.469 6.95-8.117 8.24-3.613 1.286-7.707.858-11.5-1.25-4.344-2.416-9.762-.823-12.16 3.465-2.395 4.308-.84 9.757 3.468 12.153 5.082 2.822 10.516 4.253 15.918 4.253.66 0 1.286-.302 1.95-.337 8.511 43.125 42.61 62.067 66.73 67.806-3.144 6.93-5.273 14.081-5.918 21.303-.43 4.895 3.203 9.255 8.121 9.686l.805.035c4.574 0 8.492-3.485 8.902-8.15 1.934-21.679 22.621-44.32 41.004-56.207 17.238-11.097 42.47-13.437 66.895-15.708 23.691-2.163 46.082-4.238 63.62-13.708m230.066-26.88c-2.344 4.325-.734 9.757 3.574 12.098a8.9 8.932 0 0 0 4.293 1.11 8.91 8.91 0 0 0 7.832-4.63c.34-.608 32.938-61.641-28.093-102.658-4.075-2.716-9.637-1.661-12.41 2.431-2.75 4.093-1.66 9.651 2.433 12.404 47.277 31.777 23.406 77.317 22.371 79.245M230.813 92.257c2.79 0 5.528-1.285 7.262-3.717 25.926-36.045 61.832-23.717 63.352-23.144a8.94 8.94 0 0 0 11.445-5.288c1.72-4.63-.645-9.76-5.274-11.474-17.168-6.363-56.812-8.366-84.043 29.486-2.878 3.988-1.968 9.581 2.036 12.46a8.92 8.952 0 0 0 5.222 1.677m233.75-33.74c39.785-3.234 57.883 25.59 58.703 26.95a8.96 8.992 0 0 0 7.707 4.395c1.54 0 3.114-.391 4.524-1.231 4.258-2.501 5.687-7.97 3.203-12.224-.969-1.625-23.96-39.64-75.53-35.708-4.919.372-8.587 4.68-8.212 9.613.394 4.915 4.847 8.65 9.605 8.204m163.615 261.127c-4.399-.25-9.243 3.235-9.637 8.166-.035.321-2.879 30.722-34.152 41.001a8.91 8.91 0 0 0-5.688 11.278c1.215 3.751 4.738 6.147 8.492 6.147.93 0 1.86-.146 2.79-.447 42.417-13.905 46.241-54.76 46.386-56.493.375-4.935-3.273-9.26-8.19-9.652m0 0"
     style="stroke-width:1.00178"
     id="path5" />
  <path
     fill="#102e71"
     d="M185.591 232.805c-1.285 4.771 1.54 9.668 6.312 10.953.77.216 1.555.306 2.324.306a8.926 8.926 0 0 0 8.621-6.613c3.395-12.71 16.575-20.855 29.54-18.123 4.847.984 9.566-2.074 10.585-6.915 1.02-4.826-2.074-9.56-6.92-10.58-7.619-1.612-15.27-.86-22.318 1.536-20.847-35.638-16.789-70.774-16.734-71.15.644-4.877-2.79-9.365-7.672-10.043-4.863-.589-9.37 2.751-10.05 7.632-.23 1.733-5.005 41.392 19.007 82.46-5.973 5.383-10.512 12.404-12.695 20.537m199.897-44.143c7.277-6.739 18.953-6.613 26.02.267a8.98 9.012 0 0 0 6.238 2.52 8.85 8.85 0 0 0 6.402-2.717c3.434-3.54 3.364-9.204-.18-12.634-4.113-3.987-9.027-6.649-14.25-8.31 5.294-18.16 3.2-26.219-1.718-41.323a370 371.315 0 0 1-2.805-8.899l-.539-1.787c-6.508-21.589-10.816-35.834 1.56-55.94 2.59-4.2 1.27-9.703-2.935-12.294-4.133-2.576-9.69-1.306-12.305 2.928-16.593 26.951-10.496 47.132-3.43 70.488l.536 1.788a450 451.6 0 0 0 2.914 9.24c4.418 13.602 5.758 18.158.36 34.599-6.602 1.234-12.915 4.218-18.063 9.008-3.614 3.36-3.809 9.025-.446 12.635 3.38 3.61 9.047 3.791 12.641.431m113.817-53.349c5.203 0 10.46-1.09 15.36-3.415a8.933 8.933 0 0 0 4.272-11.901c-2.09-4.469-7.492-6.328-11.89-4.273-8.977 4.218-20.043.557-24.746-8.166-2.344-4.359-7.797-5.951-12.106-3.665-4.348 2.325-5.992 7.757-3.648 12.102 3.218 6.005 8.008 10.74 13.59 14.03-9.602 23.32-4.149 48.092.304 61.228 1.25 3.736 4.74 6.077 8.473 6.077.95 0 1.898-.146 2.863-.467 4.684-1.572 7.188-6.648 5.598-11.31-3.004-8.901-8.836-31.384-.04-50.507.68.035 1.31.267 1.97.267m85.777 168.515c-.34-4.916-4.594-8.793-9.496-8.347-18.13 1.287-33.578-12.458-34.813-30.435-.36-4.916-4.738-8.578-9.53-8.31-4.919.34-8.638 4.61-8.317 9.525.734 10.545 4.757 20.051 10.87 27.79-14.374 16.907-33.202 21.717-43.702 22.949-9.278 1.109-17.399.16-26.786-.946-8.6-.983-18.328-2.108-30.363-1.752l-.09.016c-.355-5.112-1.57-12.564-5.453-18.766-2.61-4.163-8.137-5.432-12.32-2.822-4.164 2.611-5.453 8.13-2.824 12.313 2.394 3.842 2.843 9.973 2.843 12.956-9.01 3.238-16.808 7.989-23.855 12.584-12.59 8.185-22.512 14.653-37.445 11.294-13.516-3.089-27.055-3.716-38.532-2.11-1.789-4.484-4.617-9.846-8.976-13.975-3.598-3.394-9.246-3.254-12.645.357-3.379 3.575-3.234 9.24.36 12.639 1.535 1.446 2.754 3.556 3.734 5.664-19.723 8.115-29.61 21.679-30.074 22.341-2.864 4.002-1.914 9.526 2.054 12.404a8.98 9.012 0 0 0 5.223 1.677c2.77 0 5.508-1.27 7.258-3.66.09-.146 9.906-13.283 29.273-18.59 10.016-2.753 24.371-2.52 38.375.662 3.914.894 7.547 1.196 11.067 1.251 1.664 3.896 2.308 8.526 2.398 10.24a8.946 8.978 0 0 0 8.922 8.435l.484-.016c4.915-.27 8.688-4.434 8.457-9.35-.054-.892-.41-6.181-2.324-12.257 8.242-2.988 15.414-7.653 22.157-12.027 10.226-6.669 19.898-12.976 32.543-13.388 10.585-.376 19.312.643 27.734 1.626 8.476.98 16.808 1.628 26 1.091 1.625 4.52 1.5 10.56 1.25 12.58-.59 4.88 2.863 9.349 7.762 9.992.375.055.75.07 1.125.07 4.418 0 8.261-3.268 8.851-7.773.145-1.11 1.055-9.15-1.055-17.534 12.84-3.447 28.754-10.938 41.934-26.29 7.707 4.72 16.7 7.488 26.27 7.488a53 53.188 0 0 0 3.343-.105 8.91 8.91 0 0 0 8.313-9.491m0 0"
     style="stroke-width:1.00178"
     id="path6" />
  <g
     clip-path="url(#a)"
     transform="matrix(1 0 0 1.00356 -337.131 -14.437)"
     id="g7">
    <path
       fill="#fff"
       d="M794.86 161.21c0-5.98-4.848-10.823-10.833-10.823-5.976 0-10.824 4.843-10.824 10.824s4.848 10.82 10.824 10.82c5.985 0 10.832-4.84 10.832-10.82m11.124 91.661c-5.984 0-10.832 4.84-10.832 10.82 0 5.977 4.848 10.825 10.832 10.825 5.977 0 10.825-4.848 10.825-10.825 0-5.98-4.848-10.82-10.825-10.82m-176.35 27.878c-4.23 4.227-4.23 11.082 0 15.309s11.086 4.226 15.312 0c4.23-4.227 4.23-11.082 0-15.309-4.226-4.227-11.082-4.227-15.312 0m51.722-103.762c-5.98 0-10.828 4.844-10.828 10.825 0 5.976 4.848 10.824 10.828 10.824s10.829-4.848 10.829-10.824c0-5.981-4.848-10.825-10.829-10.825m243.512 23.825c-13.824-15.633-31.82-26.774-51.691-32.188-1.356-41.793-35.79-75.375-77.922-75.375-4.895 0-9.73.45-14.48 1.344a106.5 106.5 0 0 0-32.278-32.867c-17.25-11.23-37.293-17.168-57.96-17.168-58.641 0-106.352 47.687-106.352 106.304 0 6.516.59 12.969 1.757 19.305a106.64 106.64 0 0 0-47.437 31.656c-16.613 19.262-25.762 43.903-25.762 69.367q0 1.101.024 2.196c.886 43.539 28.582 80.265 66.992 95.355V253.965c-5.68-3-9.547-8.965-9.547-15.836 0-10.129 8.406-18.29 18.621-17.902 9.234.355 16.781 7.832 17.203 17.066.328 7.219-3.62 13.55-9.527 16.672V373.77a106.5 106.5 0 0 0 22.199 2.332h67.094v-36.805l-43.23-33.774c-6.141 1.887-13.094.403-17.958-4.453-7.16-7.16-6.992-18.875.508-25.82 6.777-6.281 17.41-6.324 24.234-.094 5.34 4.871 7.028 12.14 5.06 18.528l48.136 38.68v43.738h21.62V304.57l-51.19-40.183v-60.735c-5.907-3.129-9.86-9.457-9.528-16.675.422-9.235 7.969-16.715 17.203-17.067 10.219-.387 18.625 7.774 18.625 17.903 0 6.87-3.87 12.832-9.55 15.84v52.593l34.44 27.035v-133.93c-5.679-3.011-9.55-8.972-9.55-15.843 0-10.125 8.406-18.285 18.625-17.899 9.234.348 16.785 7.832 17.203 17.063.328 7.219-3.62 13.547-9.531 16.68v87.625l34.738-27.266v-32.66c-5.68-3.004-9.55-8.973-9.55-15.84 0-10.129 8.406-18.293 18.62-17.906 9.239.355 16.786 7.836 17.208 17.07.328 7.219-3.625 13.547-9.528 16.676v40.797l-51.488 40.414v117.84h102.344l-45.657-35.836V279.53c-5.902-3.125-9.855-9.457-9.53-16.676.425-9.23 7.972-16.71 17.21-17.066 10.215-.387 18.621 7.777 18.621 17.902 0 6.872-3.87 12.836-9.55 15.84v52.594l34.437 27.035V225.23c-5.676-3.007-9.547-8.972-9.547-15.843 0-10.121 8.41-18.29 18.625-17.899 9.234.352 16.785 7.832 17.203 17.063.328 7.219-3.62 13.547-9.531 16.68v149.335c20.262-3.496 39.207-12.89 54.055-27.445q.76-.743 1.515-1.516c19.606-19.984 30.399-46.418 30.399-74.414 0-25.953-9.461-50.949-26.645-70.378m-336.734 26.496c-5.98 0-10.828 4.84-10.828 10.82 0 5.976 4.847 10.82 10.828 10.82s10.828-4.844 10.828-10.82c0-5.98-4.848-10.82-10.828-10.82m144.414-104.625c-5.985 0-10.828 4.847-10.828 10.824 0 5.98 4.843 10.828 10.828 10.828 5.976 0 10.824-4.848 10.824-10.828 0-5.977-4.848-10.824-10.824-10.824m124.621 75.882c-5.977 0-10.828 4.848-10.828 10.82 0 5.981 4.851 10.829 10.828 10.829 5.98 0 10.828-4.848 10.828-10.828 0-5.973-4.848-10.82-10.828-10.82"
       id="path7" />
  </g>
  <path
     fill="#102e71"
     d="M203.121 743.194c62.38 0 96.164-34.262 96.164-91.171 0-57.501-34.257-90.933-96.164-90.933h-48.316c-3.19 0-4.844 1.66-4.844 4.862v172.38c0 3.203 1.653 4.862 4.844 4.862zM183.395 590.61h19.61c40.167 0 63.085 21.576 63.085 61.056s-22.918 62.005-63.086 62.005h-19.61ZM345.95 743.194c3.192 0 4.844-1.66 4.844-4.862V633.053l102.9 110.14c6.612 6.52 12.52 4.386 12.52-4.269V565.952c0-3.202-1.654-4.86-4.846-4.86h-22.796c-3.075 0-4.844 1.657-4.844 4.86v102.433L330.24 560.496c-6.145-6.161-11.817-3.912-11.817 4.744v173.093c0 3.203 1.656 4.862 4.844 4.862zm174.961 0c3.191 0 4.844-1.66 4.844-4.862v-54.18h35.324c41.582 0 63.91-22.168 63.91-62.244 0-36.634-18.78-60.817-68.754-60.817h-58.832c-3.19 0-4.844 1.658-4.844 4.86v172.381c0 3.203 1.653 4.862 4.844 4.862zm4.844-152.584h26.226c12.996 0 40.05.239 40.05 31.538 0 32.246-28.472 32.603-40.05 32.603h-26.226zm0 0"
     style="stroke-width:1.00178"
     id="path8" />
</svg>
